# xmcd
#
# Track frame offsets:
#	150
#	13195
#	34522
#	55074
#	72611
#	94603
#	116485
#	137486
#	159619
#	175371
#	196030
#	213402
#	233240
#	249911
#	267752
#
# Disc length: 3844 seconds
#
# Revision: 1
# Processed by: cddbd v1.5.2PL0 Copyright (c) Steve Scherf et al.
# Submitted via: audiograbber 1.83.01
#
DISCID=c80f020f
DTITLE=Mixed  - What love can do
DYEAR=1900
DGENRE=Country
TTITLE0=Brian Wilson - God only knows
TTITLE1=Stephen bishop with Earl Klugh 7 Luciana souza - Un Baile Del Corazon(A
TTITLE1=dance of the heart)
TTITLE2=Richard Marx - Your goodbye
TTITLE3=Kenny loggins - A love song
TTITLE4=Kris Kristofferson - Sunday morning coming down
TTITLE5=Burt Bacharach, john Pagano - I still remember
TTITLE6=Paul Williams, Willie nelson - Rainbow connection
TTITLE7=Richard Marx - hold on to the nights
TTITLE8=Kris Kristofferson - The wonder
TTITLE9=Kenny Loggins - I'll remember your name
TTITLE10=Paul Williams, jane Monheit - New music from an old friend
TTITLE11=Stephen Bishop with Eric clapton and Oscar castro-Neves - Save it for a 
TTITLE11=rainy day
TTITLE12=Burt Bacharach, peabo Bryson - Alfie
TTITLE13=Kenny Loggins - How about now
TTITLE14=Brian Wilson - What love can do
EXTD=
EXTT0=
EXTT1=
EXTT2=
EXTT3=
EXTT4=
EXTT5=
EXTT6=
EXTT7=
EXTT8=
EXTT9=
EXTT10=
EXTT11=
EXTT12=
EXTT13=
EXTT14=
PLAYORDER=
